<?xml version="1.0" encoding="UTF-8" standalone="no"?><!DOCTYPE svg PUBLIC "-//W3C//DTD SVG 1.1//EN" "http://www.w3.org/Graphics/SVG/1.1/DTD/svg11.dtd"><svg width="100%" height="100%" viewBox="0 0 134 134" version="1.1" xmlns="http://www.w3.org/2000/svg" xmlns:xlink="http://www.w3.org/1999/xlink" xml:space="preserve" xmlns:serif="http://www.serif.com/" style="fill-rule:evenodd;clip-rule:evenodd;stroke-linecap:round;stroke-linejoin:round;stroke-miterlimit:1.5;"><rect id="Artboard1" x="0" y="0" width="133.333" height="133.333" style="fill:none;"/><g id="Artboard11" serif:id="Artboard1"><g id="layer-setting-tool" serif:id="layer setting tool"><path d="M40.189,101.42l44.86,18.686l40.554,-18.686l-41.723,-18.689l-43.691,18.689Z" style="fill:#808080;"/><path d="M40.189,80.33l44.86,18.686l40.554,-18.686l-41.723,-18.688l-43.691,18.688Z" style="fill:#7bbd7b;"/><path d="M40.189,56.262l44.86,18.687l40.554,-18.687l-41.723,-18.688l-43.691,18.688Z" style="fill:#bfb94a;"/><path d="M40.189,34.361l44.86,18.686l40.554,-18.686l-41.723,-18.689l-43.691,18.689Z" style="fill:#9ffffd;"/><path d="M29.116,90.689l-24.849,10.731l61.533,26.584l61.533,-26.584l-20.088,-9.492" style="fill:none;stroke:#426698;stroke-width:4.17px;"/><path d="M29.116,69.599l-24.849,10.731l61.533,26.585l61.533,-26.585l-20.088,-9.491" style="fill:none;stroke:#426698;stroke-width:4.17px;"/><path d="M29.116,45.531l-24.849,10.731l61.533,26.585l61.533,-26.585l-20.088,-9.491" style="fill:none;stroke:#426698;stroke-width:4.17px;"/><path d="M4.267,33.869l62.635,27.075l60.431,-26.892l-60.892,-26.277l-62.174,26.094Z" style="fill:none;stroke:#426698;stroke-width:4.17px;"/></g></g></svg>