<?xml version="1.0" encoding="UTF-8" standalone="no"?><!DOCTYPE svg PUBLIC "-//W3C//DTD SVG 1.1//EN" "http://www.w3.org/Graphics/SVG/1.1/DTD/svg11.dtd"><svg width="100%" height="100%" viewBox="0 0 968 270" version="1.1" xmlns="http://www.w3.org/2000/svg" xmlns:xlink="http://www.w3.org/1999/xlink" xml:space="preserve" xmlns:serif="http://www.serif.com/" style="fill-rule:evenodd;clip-rule:evenodd;stroke-linejoin:round;stroke-miterlimit:2;"><g transform="matrix(197.633,0,0,197.633,757.158,170.862)"></g><text x="24.621px" y="170.862px" style="font-family:'TwCenMT-Bold', 'Tw Cen MT', sans-serif;font-weight:700;font-size:197.633px;fill:#267bd9;">Sky Dam</text><g><path d="M390.908,193.039l19.374,-0c5.206,-0 9.406,1.517 12.599,4.552c3.193,3.035 4.79,7.026 4.79,11.974c-0,3.25 -0.784,6.335 -2.352,9.255c-1.568,2.92 -3.934,5.099 -7.098,6.537c-3.164,1.438 -5.868,2.186 -8.112,2.244l-7.076,0.172l0,21.919l-12.125,0l0,-56.653Zm11.952,10.183l0,14.498l4.747,-0c2.042,-0 3.79,-0.734 5.242,-2.201c1.453,-1.467 2.179,-3.207 2.179,-5.221c0,-2.301 -0.82,-4.084 -2.459,-5.35c-1.64,-1.266 -3.97,-1.899 -6.99,-1.899l-2.719,0.173Z" style="fill:#808080;fill-rule:nonzero;"/><rect x="437.551" y="192.09" width="11.046" height="57.603" style="fill:#808080;fill-rule:nonzero;"/><path d="M484.626,249.692l-0,-6.342l-0.173,-0c-1.726,2.473 -3.466,4.264 -5.221,5.371c-1.754,1.108 -3.926,1.662 -6.515,1.662c-4.344,-0 -8.04,-1.87 -11.089,-5.61c-3.049,-3.739 -4.574,-8.284 -4.574,-13.634c0,-5.293 1.626,-9.831 4.876,-13.614c3.251,-3.782 7.105,-5.673 11.564,-5.673c2.128,-0 4.041,0.474 5.738,1.423c1.698,0.95 3.495,2.46 5.394,4.531l-0,-5.135l11.046,0l-0,37.021l-11.046,0Zm-8.112,-26.795c-2.186,0 -4.013,0.871 -5.48,2.611c-1.467,1.74 -2.2,3.934 -2.2,6.58c-0,2.474 0.697,4.466 2.092,5.976c1.396,1.51 3.229,2.265 5.502,2.265c2.186,0 4.056,-0.87 5.609,-2.61c1.553,-1.741 2.33,-3.848 2.33,-6.321c-0,-2.302 -0.777,-4.294 -2.33,-5.976c-1.553,-1.683 -3.394,-2.525 -5.523,-2.525Z" style="fill:#808080;fill-rule:nonzero;"/><path d="M508.4,199.856l11.046,0l0,12.729l5.308,0l-0,10.14l-5.308,-0l0,26.967l-11.046,0l0,-26.967l-4.228,-0l-0,-10.14l4.228,0l0,-12.729Z" style="fill:#808080;fill-rule:nonzero;"/><path d="M551.937,193.47l-0,10.615c-1.669,-1.122 -3.107,-1.683 -4.315,-1.683c-1.553,0 -2.812,0.561 -3.775,1.683c-0.964,1.122 -1.446,2.574 -1.446,4.358l0,4.142l9.449,0l0,10.054l-9.535,-0l-0,27.053l-11.046,0l-0,-27.053l-3.279,-0l-0,-10.054l3.279,0l-0,-4.531c-0,-6.299 1.337,-10.564 4.013,-12.793c2.675,-2.229 5.81,-3.344 9.406,-3.344c2.848,0 5.264,0.518 7.249,1.553Z" style="fill:#808080;fill-rule:nonzero;"/><path d="M557.158,231.225c-0,-5.724 1.826,-10.399 5.479,-14.023c3.654,-3.625 8.342,-5.437 14.067,-5.437c5.321,0 9.787,1.848 13.397,5.545c3.61,3.696 5.415,8.277 5.415,13.742c0,5.581 -1.805,10.212 -5.415,13.894c-3.61,3.682 -8.133,5.523 -13.57,5.523c-6.127,-0 -10.888,-1.949 -14.282,-5.847c-3.394,-3.897 -5.091,-8.363 -5.091,-13.397Zm27.485,-0c-0,-2.503 -0.82,-4.689 -2.46,-6.559c-1.639,-1.869 -3.552,-2.804 -5.738,-2.804c-2.273,-0 -4.229,0.877 -5.868,2.632c-1.64,1.755 -2.46,3.854 -2.46,6.299c0,2.676 0.813,4.948 2.438,6.818c1.625,1.87 3.589,2.804 5.89,2.804c2.186,0 4.099,-0.913 5.738,-2.739c1.64,-1.827 2.46,-3.977 2.46,-6.451Z" style="fill:#808080;fill-rule:nonzero;"/><path d="M615.58,212.585l0,5.48l0.173,-0c1.093,-1.841 2.366,-3.301 3.818,-4.38c1.453,-1.078 2.798,-1.618 4.035,-1.618c0.747,0 1.423,0.058 2.028,0.173l-0,12.081c-0.921,-0.172 -1.827,-0.259 -2.719,-0.259c-2.272,0 -4.034,0.799 -5.285,2.395c-1.252,1.597 -1.877,3.833 -1.877,6.71l-0,16.525l-11.219,0l0,-37.107l11.046,0Z" style="fill:#808080;fill-rule:nonzero;"/><path d="M646.129,212.585l-0,5.911c0.518,-0.345 1.28,-1.006 2.287,-1.984c1.006,-0.979 1.977,-1.806 2.912,-2.482c0.935,-0.675 2.057,-1.222 3.366,-1.639c1.309,-0.417 2.495,-0.626 3.559,-0.626c1.698,0 3.539,0.597 5.523,1.791c1.985,1.194 3.639,3.315 4.962,6.364c2.302,-2.934 4.552,-5.027 6.753,-6.278c2.201,-1.251 4.25,-1.877 6.149,-1.877c3.365,0 6.213,1.388 8.543,4.164c2.33,2.776 3.495,6.192 3.495,10.248l-0,23.515l-11.046,0l0,-20.581c0,-2.043 -0.561,-3.761 -1.683,-5.156c-1.122,-1.396 -2.474,-2.093 -4.056,-2.093c-1.898,-0 -3.538,0.791 -4.919,2.373c-1.38,1.582 -2.071,3.466 -2.071,5.652l0,19.805l-10.959,0l-0,-20.064c-0,-2.157 -0.568,-3.976 -1.705,-5.458c-1.136,-1.481 -2.509,-2.222 -4.12,-2.222c-1.899,0 -3.538,0.813 -4.919,2.438c-1.381,1.625 -2.071,3.574 -2.071,5.847l-0,19.459l-11.132,0l-0,-37.107l11.132,0Z" style="fill:#808080;fill-rule:nonzero;"/><path d="M770.827,196.059l-0,13.808c-6.127,-3.682 -11.492,-5.523 -16.095,-5.523c-4.602,-0 -8.284,1.582 -11.046,4.746c-2.761,3.164 -4.142,7.422 -4.142,12.772c0,5.063 1.453,9.111 4.358,12.146c2.905,3.035 6.789,4.552 11.65,4.552c4.257,0 9.349,-1.711 15.275,-5.134l-0,13.721c-6.645,2.215 -12.183,3.322 -16.612,3.322c-7.623,-0 -14.095,-2.797 -19.417,-8.392c-5.322,-5.595 -7.982,-12.42 -7.982,-20.474c-0,-8.198 2.711,-15.138 8.133,-20.819c5.422,-5.681 12.017,-8.522 19.783,-8.522c5.005,0 10.37,1.266 16.095,3.797Z" style="fill:#808080;fill-rule:nonzero;"/><path d="M814.061,233.771l-26.45,-0c0.144,2.387 0.928,4.329 2.352,5.825c1.424,1.495 3.085,2.243 4.983,2.243c3.395,0 6.055,-1.539 7.983,-4.616l10.139,3.365c-3.768,6.587 -9.622,9.881 -17.561,9.881c-5.839,-0 -10.485,-1.769 -13.937,-5.307c-3.451,-3.538 -5.177,-8.299 -5.177,-14.282c-0,-5.379 1.819,-9.895 5.458,-13.549c3.639,-3.653 8.119,-5.479 13.44,-5.479c5.351,-0 9.817,1.92 13.398,5.76c3.581,3.84 5.372,8.637 5.372,14.39l-0,1.769Zm-26.364,-7.422l14.93,0c-1.036,-4.631 -3.409,-6.947 -7.12,-6.947c-2.128,0 -3.89,0.604 -5.285,1.813c-1.396,1.208 -2.237,2.919 -2.525,5.134Z" style="fill:#808080;fill-rule:nonzero;"/><path d="M833.736,212.585l0,4.401c3.769,-3.538 7.724,-5.307 11.866,-5.307c3.538,-0 6.465,1.453 8.781,4.358c2.315,2.905 3.473,6.616 3.473,11.132l0,22.523l-11.218,0l-0,-20.754c-0,-2.129 -0.583,-3.926 -1.748,-5.393c-1.165,-1.467 -2.582,-2.201 -4.25,-2.201c-2.014,0 -3.668,0.928 -4.962,2.783c-1.294,1.855 -1.942,4.25 -1.942,7.184l0,18.381l-11.046,0l0,-37.107l11.046,0Z" style="fill:#808080;fill-rule:nonzero;"/><path d="M868.729,199.856l11.046,0l0,12.729l5.307,0l0,10.14l-5.307,-0l0,26.967l-11.046,0l0,-26.967l-4.228,-0l-0,-10.14l4.228,0l0,-12.729Z" style="fill:#808080;fill-rule:nonzero;"/><path d="M926.246,233.771l-26.45,-0c0.144,2.387 0.928,4.329 2.351,5.825c1.424,1.495 3.086,2.243 4.984,2.243c3.394,0 6.055,-1.539 7.982,-4.616l10.14,3.365c-3.768,6.587 -9.622,9.881 -17.561,9.881c-5.839,-0 -10.485,-1.769 -13.937,-5.307c-3.452,-3.538 -5.178,-8.299 -5.178,-14.282c0,-5.379 1.82,-9.895 5.459,-13.549c3.638,-3.653 8.119,-5.479 13.44,-5.479c5.351,-0 9.816,1.92 13.398,5.76c3.581,3.84 5.372,8.637 5.372,14.39l-0,1.769Zm-26.364,-7.422l14.929,0c-1.035,-4.631 -3.408,-6.947 -7.119,-6.947c-2.129,0 -3.891,0.604 -5.286,1.813c-1.395,1.208 -2.236,2.919 -2.524,5.134Z" style="fill:#808080;fill-rule:nonzero;"/><path d="M944.54,212.585l0,5.48l0.173,-0c1.093,-1.841 2.366,-3.301 3.819,-4.38c1.452,-1.078 2.797,-1.618 4.034,-1.618c0.748,0 1.424,0.058 2.028,0.173l-0,12.081c-0.921,-0.172 -1.827,-0.259 -2.719,-0.259c-2.272,0 -4.034,0.799 -5.285,2.395c-1.251,1.597 -1.877,3.833 -1.877,6.71l-0,16.525l-11.219,0l0,-37.107l11.046,0Z" style="fill:#808080;fill-rule:nonzero;"/></g></svg>