<?xml version="1.0" encoding="UTF-8" standalone="no"?>
<!DOCTYPE svg PUBLIC "-//W3C//DTD SVG 1.1//EN" "http://www.w3.org/Graphics/SVG/1.1/DTD/svg11.dtd">
<svg width="100%" height="100%" viewBox="0 0 167 167" version="1.1" xmlns="http://www.w3.org/2000/svg" xmlns:xlink="http://www.w3.org/1999/xlink" xml:space="preserve" xmlns:serif="http://www.serif.com/" style="fill-rule:evenodd;clip-rule:evenodd;stroke-linecap:round;stroke-linejoin:round;stroke-miterlimit:1.5;">
    <rect id="Artboard1" x="0" y="0" width="166.667" height="166.667" style="fill:none;"/>
    <g id="Artboard11" serif:id="Artboard1">
        <g id="Drone">
            <g transform="matrix(1,0,0,1,100.54,3.36512)">
                <path d="M26.713,78.988L26.713,60.418L26.772,60.418C27.214,57.116 30.044,54.567 33.465,54.567C36.887,54.567 39.717,57.116 40.159,60.418L40.218,60.418L40.218,78.988C40.218,82.715 37.192,85.74 33.465,85.74C29.738,85.74 26.713,82.715 26.713,78.988Z" style="fill:rgb(235,235,235);stroke:black;stroke-width:4.17px;"/>
            </g>
            <g transform="matrix(1,0,0,1,0.678809,3.36512)">
                <path d="M26.713,78.988L26.713,60.418L26.772,60.418C27.214,57.116 30.044,54.567 33.465,54.567C36.887,54.567 39.717,57.116 40.159,60.418L40.218,60.418L40.218,78.988C40.218,82.715 37.192,85.74 33.465,85.74C29.738,85.74 26.713,82.715 26.713,78.988Z" style="fill:rgb(235,235,235);stroke:black;stroke-width:4.17px;"/>
            </g>
            <g transform="matrix(6.12323e-17,-1,1,6.12323e-17,5.03445,104.453)">
                <path d="M26.716,79.191C26.714,79.123 26.713,79.056 26.713,78.988L26.713,60.418L26.772,60.418C27.214,57.116 30.044,54.567 33.465,54.567C36.887,54.567 39.717,57.116 40.159,60.418L40.218,60.418L40.218,78.988C40.218,79.056 40.217,79.123 40.215,79.191L40.218,79.191L40.218,97.761C40.218,101.488 37.192,104.514 33.465,104.514C29.738,104.514 26.713,101.488 26.713,97.761L26.713,79.191L26.716,79.191Z" style="fill:rgb(235,235,235);stroke:black;stroke-width:4.17px;"/>
            </g>
            <g transform="matrix(1,0,0,1,-0.225414,-2.2568)">
                <path d="M7.913,52.244L60.826,52.244" style="fill:none;stroke:black;stroke-width:8.33px;"/>
            </g>
            <g transform="matrix(1,0,0,1,99.6353,-2.2568)">
                <path d="M7.913,52.244L60.826,52.244" style="fill:none;stroke:black;stroke-width:8.33px;"/>
            </g>
            <path d="M34.144,57.932L34.144,43.312" style="fill:none;stroke:black;stroke-width:8.33px;"/>
            <g transform="matrix(1,0,0,1,99.8608,0)">
                <path d="M34.144,57.932L34.144,43.312" style="fill:none;stroke:black;stroke-width:8.33px;"/>
            </g>
            <rect x="66.948" y="73.519" width="35.575" height="20.315" style="fill:rgb(235,235,235);stroke:black;stroke-width:4.17px;"/>
            <g transform="matrix(1,0,0,1,0,2)">
                <path d="M44.929,118.942L59.601,118.942" style="fill:none;stroke:black;stroke-width:4.17px;"/>
            </g>
            <path d="M52.265,120.942L59.601,93.834C60.94,91.133 61.122,88.141 66.948,87.982" style="fill:none;stroke:black;stroke-width:4.17px;"/>
            <g transform="matrix(-1,0,0,1,170.977,2)">
                <path d="M44.929,118.942L59.601,118.942" style="fill:none;stroke:black;stroke-width:4.17px;"/>
            </g>
            <g transform="matrix(-1,0,0,1,170.977,0)">
                <path d="M52.265,120.942L59.601,93.834C60.94,91.133 61.122,88.141 66.948,87.982" style="fill:none;stroke:black;stroke-width:4.17px;"/>
            </g>
            <path d="M59.607,71.359L40.897,71.359" style="fill:none;stroke:black;stroke-width:4.17px;"/>
            <path d="M109.548,70.987L126.047,70.987" style="fill:none;stroke:black;stroke-width:4.17px;"/>
        </g>
    </g>
</svg>
