<?xml version="1.0" encoding="UTF-8" standalone="no"?>
<!DOCTYPE svg PUBLIC "-//W3C//DTD SVG 1.1//EN" "http://www.w3.org/Graphics/SVG/1.1/DTD/svg11.dtd">
<svg width="100%" height="100%" viewBox="0 0 167 167" version="1.1" xmlns="http://www.w3.org/2000/svg" xmlns:xlink="http://www.w3.org/1999/xlink" xml:space="preserve" xmlns:serif="http://www.serif.com/" style="fill-rule:evenodd;clip-rule:evenodd;stroke-linejoin:round;stroke-miterlimit:2;">
    <rect id="Artboard1" x="0" y="0" width="166.667" height="166.667" style="fill:none;"/>
    <g id="Artboard11" serif:id="Artboard1">
        <g id="information">
            <g transform="matrix(1.00434,0,0,1.00434,-9.74904,-26.8394)">
                <circle cx="92.68" cy="109.697" r="78.825" style="fill:rgb(235,235,235);"/>
                <path d="M92.68,30.872C136.185,30.872 171.505,66.192 171.505,109.697C171.505,153.201 136.185,188.521 92.68,188.521C49.176,188.521 13.856,153.201 13.856,109.697C13.856,66.192 49.176,30.872 92.68,30.872ZM92.68,39.169C53.755,39.169 22.153,70.772 22.153,109.697C22.153,148.622 53.755,180.224 92.68,180.224C131.605,180.224 163.208,148.622 163.208,109.697C163.208,70.772 131.605,39.169 92.68,39.169Z"/>
            </g>
            <g transform="matrix(3.71437,0,0,3.71437,-144.297,-181.149)">
                <g transform="matrix(50,0,0,50,54.4312,84.85)">
                    <path d="M0.265,-0.181L0.265,-0.098C0.239,-0.072 0.209,-0.049 0.174,-0.028C0.132,-0.004 0.097,0.009 0.068,0.009C0.044,0.009 0.028,-0.008 0.021,-0.042C0.017,-0.059 0.015,-0.086 0.015,-0.122C0.015,-0.157 0.02,-0.198 0.031,-0.243C0.042,-0.289 0.058,-0.336 0.077,-0.386L0.159,-0.386L0.149,-0.356C0.129,-0.296 0.115,-0.247 0.106,-0.211C0.098,-0.174 0.094,-0.143 0.094,-0.116C0.094,-0.085 0.1,-0.069 0.112,-0.069C0.129,-0.069 0.16,-0.089 0.206,-0.128C0.226,-0.145 0.245,-0.162 0.265,-0.181ZM0.169,-0.598C0.201,-0.598 0.217,-0.589 0.217,-0.57C0.217,-0.56 0.214,-0.547 0.209,-0.531C0.204,-0.515 0.198,-0.503 0.191,-0.497C0.184,-0.49 0.171,-0.486 0.152,-0.486C0.128,-0.486 0.115,-0.494 0.115,-0.511C0.115,-0.534 0.12,-0.554 0.13,-0.571C0.14,-0.589 0.153,-0.598 0.169,-0.598Z" style="fill-rule:nonzero;stroke:black;stroke-width:0.03px;"/>
                </g>
            </g>
        </g>
    </g>
</svg>
