<?xml version="1.0" encoding="UTF-8" standalone="no"?>
<!DOCTYPE svg PUBLIC "-//W3C//DTD SVG 1.1//EN" "http://www.w3.org/Graphics/SVG/1.1/DTD/svg11.dtd">
<svg width="100%" height="100%" viewBox="0 0 167 167" version="1.1" xmlns="http://www.w3.org/2000/svg" xmlns:xlink="http://www.w3.org/1999/xlink" xml:space="preserve" xmlns:serif="http://www.serif.com/" style="fill-rule:evenodd;clip-rule:evenodd;stroke-linecap:round;stroke-linejoin:round;stroke-miterlimit:1.5;">
    <rect id="Artboard1" x="0" y="0" width="166.667" height="166.667" style="fill:none;"/>
    <clipPath id="_clip1">
        <rect id="Artboard11" serif:id="Artboard1" x="0" y="0" width="166.667" height="166.667"/>
    </clipPath>
    <g clip-path="url(#_clip1)">
        <g id="Logbook">
            <path d="M107.637,13.605C112.336,13.605 116.842,15.471 120.164,18.794C123.486,22.116 125.353,26.622 125.353,31.32C125.353,56.102 125.353,100.857 125.353,125.639C125.353,130.337 123.486,134.843 120.164,138.165C116.842,141.488 112.336,143.354 107.637,143.354C87.962,143.354 56.385,143.354 36.709,143.354C32.011,143.354 27.505,141.488 24.182,138.165C20.86,134.843 18.994,130.337 18.994,125.639C18.994,100.857 18.994,56.102 18.994,31.32C18.994,26.622 20.86,22.116 24.182,18.794C27.505,15.471 32.011,13.605 36.709,13.605C56.385,13.605 87.962,13.605 107.637,13.605Z" style="fill:rgb(235,235,235);"/>
            <path d="M107.637,13.605C112.336,13.605 116.842,15.471 120.164,18.794C123.486,22.116 125.353,26.622 125.353,31.32L125.353,125.639C125.353,130.337 123.486,134.843 120.164,138.165C116.842,141.488 112.336,143.354 107.637,143.354L36.709,143.354C32.011,143.354 27.505,141.488 24.182,138.165C20.86,134.843 18.994,130.337 18.994,125.639L18.994,31.32C18.994,26.622 20.86,22.116 24.182,18.794C27.505,15.471 32.011,13.605 36.709,13.605L107.637,13.605ZM107.637,21.938L36.709,21.938C34.221,21.938 31.834,22.927 30.075,24.686C28.315,26.446 27.327,28.832 27.327,31.32L27.327,125.639C27.327,128.127 28.315,130.513 30.075,132.273C31.834,134.032 34.221,135.021 36.709,135.021L107.637,135.021C110.126,135.021 112.512,134.032 114.271,132.273C116.031,130.513 117.019,128.127 117.019,125.639L117.019,31.32C117.019,28.832 116.031,26.446 114.271,24.686C112.512,22.927 110.126,21.938 107.637,21.938Z"/>
            <g transform="matrix(0.562047,0,0,1,45.5525,0)">
                <path d="M38.305,38.555L104.012,38.555" style="fill:none;stroke:black;stroke-width:10.27px;"/>
            </g>
            <g transform="matrix(0.562047,0,0,1,45.5525,24.5748)">
                <path d="M38.305,38.555L104.012,38.555" style="fill:none;stroke:black;stroke-width:10.27px;"/>
            </g>
            <g transform="matrix(0.562047,0,0,1,45.5525,49.376)">
                <path d="M38.305,38.555L104.012,38.555" style="fill:none;stroke:black;stroke-width:10.27px;"/>
            </g>
            <g transform="matrix(0.562047,0,0,1,45.5525,73.8346)">
                <path d="M38.305,38.555L104.012,38.555" style="fill:none;stroke:black;stroke-width:10.27px;"/>
            </g>
            <g transform="matrix(0.23696,0,0,1,26.1657,0)">
                <path d="M38.305,38.555L104.012,38.555" style="fill:none;stroke:black;stroke-width:11.47px;"/>
            </g>
            <g transform="matrix(0.23696,0,0,1,26.1657,24.5748)">
                <path d="M38.305,38.555L104.012,38.555" style="fill:none;stroke:black;stroke-width:11.47px;"/>
            </g>
            <g transform="matrix(0.23696,0,0,1,26.1657,49.376)">
                <path d="M38.305,38.555L104.012,38.555" style="fill:none;stroke:black;stroke-width:11.47px;"/>
            </g>
            <g transform="matrix(0.23696,0,0,1,26.1657,73.8346)">
                <path d="M38.305,38.555L104.012,38.555" style="fill:none;stroke:black;stroke-width:11.47px;"/>
            </g>
            <g transform="matrix(1.1917,0,0,1.1917,-26.8453,-52.4326)">
                <circle cx="120.6" cy="142.266" r="41.783" style="fill:rgb(235,235,235);"/>
                <path d="M120.6,100.484C143.661,100.484 162.383,119.206 162.383,142.266C162.383,165.327 143.661,184.049 120.6,184.049C97.54,184.049 78.817,165.327 78.817,142.266C78.817,119.206 97.54,100.484 120.6,100.484ZM120.6,110.973C103.329,110.973 89.307,124.995 89.307,142.266C89.307,159.538 103.329,173.56 120.6,173.56C137.872,173.56 151.894,159.538 151.894,142.266C151.894,124.995 137.872,110.973 120.6,110.973Z" style="fill:white;"/>
            </g>
            <g transform="matrix(1,0,0,1,-3.72619,-25.1601)">
                <circle cx="120.6" cy="142.266" r="41.783" style="fill:rgb(235,235,235);"/>
                <path d="M120.6,100.484C143.661,100.484 162.383,119.206 162.383,142.266C162.383,165.327 143.661,184.049 120.6,184.049C97.54,184.049 78.817,165.327 78.817,142.266C78.817,119.206 97.54,100.484 120.6,100.484ZM120.6,108.817C102.139,108.817 87.151,123.805 87.151,142.266C87.151,160.728 102.139,175.716 120.6,175.716C139.062,175.716 154.05,160.728 154.05,142.266C154.05,123.805 139.062,108.817 120.6,108.817Z"/>
            </g>
            <g transform="matrix(0.701185,0,0,0.701185,32.2017,38.2229)">
                <path d="M125.353,83.333L125.353,117.106L98.135,117.106" style="fill:none;stroke:black;stroke-width:17.83px;"/>
            </g>
        </g>
    </g>
</svg>
